<mxfile host="app.diagrams.net" modified="2022-03-10T05:29:44.438Z" agent="5.0 (Windows NT 10.0; Win64; x64) AppleWebKit/537.36 (KHTML, like Gecko) Chrome/99.0.4844.51 Safari/537.36 Edg/99.0.1150.36" etag="XLS-sbmrNUAQURBs7ji_" version="17.1.0" type="github">
  <diagram id="ob-UYyuMliJ_9xUmt8Ii" name="Page-1">
    <mxGraphModel dx="1237" dy="663" grid="1" gridSize="10" guides="1" tooltips="1" connect="1" arrows="1" fold="1" page="1" pageScale="1" pageWidth="827" pageHeight="1169" math="0" shadow="0">
      <root>
        <mxCell id="0" />
        <mxCell id="1" parent="0" />
        <mxCell id="TMDQbr_qUR_ZuYRfACLo-59" style="edgeStyle=orthogonalEdgeStyle;rounded=0;orthogonalLoop=1;jettySize=auto;html=1;entryX=0.5;entryY=1.009;entryDx=0;entryDy=0;entryPerimeter=0;" edge="1" parent="1" source="TMDQbr_qUR_ZuYRfACLo-54" target="TMDQbr_qUR_ZuYRfACLo-11">
          <mxGeometry relative="1" as="geometry" />
        </mxCell>
        <mxCell id="TMDQbr_qUR_ZuYRfACLo-32" value="" style="group" vertex="1" connectable="0" parent="1">
          <mxGeometry width="300" height="200" as="geometry" />
        </mxCell>
        <mxCell id="TMDQbr_qUR_ZuYRfACLo-1" value="FileSystem" style="html=1;" vertex="1" parent="TMDQbr_qUR_ZuYRfACLo-32">
          <mxGeometry x="90" y="20" width="110" height="50" as="geometry" />
        </mxCell>
        <mxCell id="TMDQbr_qUR_ZuYRfACLo-2" value="NetworkSystem" style="html=1;" vertex="1" parent="TMDQbr_qUR_ZuYRfACLo-32">
          <mxGeometry x="90" y="80" width="110" height="50" as="geometry" />
        </mxCell>
        <mxCell id="TMDQbr_qUR_ZuYRfACLo-3" value="ResourceSystem" style="html=1;" vertex="1" parent="TMDQbr_qUR_ZuYRfACLo-32">
          <mxGeometry x="90" y="140" width="110" height="50" as="geometry" />
        </mxCell>
        <mxCell id="TMDQbr_qUR_ZuYRfACLo-5" value="IO" style="shape=umlFrame;whiteSpace=wrap;html=1;" vertex="1" parent="TMDQbr_qUR_ZuYRfACLo-32">
          <mxGeometry width="300" height="200" as="geometry" />
        </mxCell>
        <mxCell id="TMDQbr_qUR_ZuYRfACLo-33" value="" style="group" vertex="1" connectable="0" parent="1">
          <mxGeometry x="700" width="300" height="260" as="geometry" />
        </mxCell>
        <mxCell id="TMDQbr_qUR_ZuYRfACLo-6" value="Debug" style="shape=umlFrame;whiteSpace=wrap;html=1;" vertex="1" parent="TMDQbr_qUR_ZuYRfACLo-33">
          <mxGeometry width="300" height="260" as="geometry" />
        </mxCell>
        <mxCell id="TMDQbr_qUR_ZuYRfACLo-4" value="LogSystem" style="html=1;" vertex="1" parent="TMDQbr_qUR_ZuYRfACLo-33">
          <mxGeometry x="90" y="10" width="110" height="50" as="geometry" />
        </mxCell>
        <mxCell id="TMDQbr_qUR_ZuYRfACLo-7" value="AnlysisSystem" style="html=1;" vertex="1" parent="TMDQbr_qUR_ZuYRfACLo-33">
          <mxGeometry x="90" y="75" width="110" height="50" as="geometry" />
        </mxCell>
        <mxCell id="TMDQbr_qUR_ZuYRfACLo-8" value="UnitTestSystem" style="html=1;" vertex="1" parent="TMDQbr_qUR_ZuYRfACLo-33">
          <mxGeometry x="90" y="140" width="110" height="50" as="geometry" />
        </mxCell>
        <mxCell id="TMDQbr_qUR_ZuYRfACLo-9" value="GizmosSystem" style="html=1;" vertex="1" parent="TMDQbr_qUR_ZuYRfACLo-33">
          <mxGeometry x="90" y="200" width="110" height="50" as="geometry" />
        </mxCell>
        <mxCell id="TMDQbr_qUR_ZuYRfACLo-34" value="" style="group" vertex="1" connectable="0" parent="1">
          <mxGeometry y="325" width="300" height="260" as="geometry" />
        </mxCell>
        <mxCell id="TMDQbr_qUR_ZuYRfACLo-23" value="Logic" style="shape=umlFrame;whiteSpace=wrap;html=1;" vertex="1" parent="TMDQbr_qUR_ZuYRfACLo-34">
          <mxGeometry width="300" height="260" as="geometry" />
        </mxCell>
        <mxCell id="TMDQbr_qUR_ZuYRfACLo-24" value="Command" style="html=1;" vertex="1" parent="TMDQbr_qUR_ZuYRfACLo-34">
          <mxGeometry x="95" y="20" width="110" height="50" as="geometry" />
        </mxCell>
        <mxCell id="TMDQbr_qUR_ZuYRfACLo-26" value="Procedure" style="html=1;" vertex="1" parent="TMDQbr_qUR_ZuYRfACLo-34">
          <mxGeometry x="95" y="80" width="110" height="50" as="geometry" />
        </mxCell>
        <mxCell id="TMDQbr_qUR_ZuYRfACLo-27" value="FSM" style="html=1;" vertex="1" parent="TMDQbr_qUR_ZuYRfACLo-34">
          <mxGeometry x="95" y="140" width="110" height="50" as="geometry" />
        </mxCell>
        <mxCell id="TMDQbr_qUR_ZuYRfACLo-28" value="Event" style="html=1;" vertex="1" parent="TMDQbr_qUR_ZuYRfACLo-34">
          <mxGeometry x="95" y="200" width="110" height="50" as="geometry" />
        </mxCell>
        <mxCell id="TMDQbr_qUR_ZuYRfACLo-35" value="" style="group" vertex="1" connectable="0" parent="1">
          <mxGeometry x="360" y="682.5" width="300" height="200" as="geometry" />
        </mxCell>
        <mxCell id="TMDQbr_qUR_ZuYRfACLo-20" value="Pool" style="shape=umlFrame;whiteSpace=wrap;html=1;" vertex="1" parent="TMDQbr_qUR_ZuYRfACLo-35">
          <mxGeometry width="300" height="200" as="geometry" />
        </mxCell>
        <mxCell id="TMDQbr_qUR_ZuYRfACLo-21" value="RefrencePool" style="html=1;" vertex="1" parent="TMDQbr_qUR_ZuYRfACLo-35">
          <mxGeometry x="95" y="50" width="110" height="50" as="geometry" />
        </mxCell>
        <mxCell id="TMDQbr_qUR_ZuYRfACLo-22" value="ObjectPool" style="html=1;" vertex="1" parent="TMDQbr_qUR_ZuYRfACLo-35">
          <mxGeometry x="95" y="120" width="110" height="50" as="geometry" />
        </mxCell>
        <mxCell id="TMDQbr_qUR_ZuYRfACLo-36" style="edgeStyle=orthogonalEdgeStyle;rounded=0;orthogonalLoop=1;jettySize=auto;html=1;entryX=-0.01;entryY=0.505;entryDx=0;entryDy=0;entryPerimeter=0;" edge="1" parent="1" source="TMDQbr_qUR_ZuYRfACLo-16" target="TMDQbr_qUR_ZuYRfACLo-20">
          <mxGeometry relative="1" as="geometry" />
        </mxCell>
        <mxCell id="TMDQbr_qUR_ZuYRfACLo-37" style="edgeStyle=orthogonalEdgeStyle;rounded=0;orthogonalLoop=1;jettySize=auto;html=1;entryX=0.5;entryY=-0.013;entryDx=0;entryDy=0;entryPerimeter=0;" edge="1" parent="1" source="TMDQbr_qUR_ZuYRfACLo-16" target="TMDQbr_qUR_ZuYRfACLo-11">
          <mxGeometry relative="1" as="geometry" />
        </mxCell>
        <mxCell id="TMDQbr_qUR_ZuYRfACLo-41" style="edgeStyle=orthogonalEdgeStyle;rounded=0;orthogonalLoop=1;jettySize=auto;html=1;entryX=0.497;entryY=1.013;entryDx=0;entryDy=0;entryPerimeter=0;" edge="1" parent="1" source="TMDQbr_qUR_ZuYRfACLo-16" target="TMDQbr_qUR_ZuYRfACLo-23">
          <mxGeometry relative="1" as="geometry" />
        </mxCell>
        <mxCell id="TMDQbr_qUR_ZuYRfACLo-46" style="edgeStyle=orthogonalEdgeStyle;rounded=0;orthogonalLoop=1;jettySize=auto;html=1;entryX=0.517;entryY=-0.003;entryDx=0;entryDy=0;entryPerimeter=0;" edge="1" parent="1" source="TMDQbr_qUR_ZuYRfACLo-16" target="TMDQbr_qUR_ZuYRfACLo-42">
          <mxGeometry relative="1" as="geometry">
            <Array as="points">
              <mxPoint x="150" y="960" />
              <mxPoint x="525" y="960" />
            </Array>
          </mxGeometry>
        </mxCell>
        <mxCell id="TMDQbr_qUR_ZuYRfACLo-16" value="Single" style="shape=umlFrame;whiteSpace=wrap;html=1;" vertex="1" parent="1">
          <mxGeometry y="640" width="300" height="285" as="geometry" />
        </mxCell>
        <mxCell id="TMDQbr_qUR_ZuYRfACLo-17" value="Entity" style="html=1;" vertex="1" parent="1">
          <mxGeometry x="100" y="730" width="110" height="47.16" as="geometry" />
        </mxCell>
        <mxCell id="TMDQbr_qUR_ZuYRfACLo-18" value="UI" style="html=1;" vertex="1" parent="1">
          <mxGeometry x="100" y="784.32" width="110" height="51.36" as="geometry" />
        </mxCell>
        <mxCell id="TMDQbr_qUR_ZuYRfACLo-19" value="Effect" style="html=1;" vertex="1" parent="1">
          <mxGeometry x="100" y="847.27" width="110" height="52.73" as="geometry" />
        </mxCell>
        <mxCell id="TMDQbr_qUR_ZuYRfACLo-40" value="Scene" style="html=1;" vertex="1" parent="1">
          <mxGeometry x="100" y="670" width="110" height="47.16" as="geometry" />
        </mxCell>
        <mxCell id="TMDQbr_qUR_ZuYRfACLo-49" value="" style="group" vertex="1" connectable="0" parent="1">
          <mxGeometry x="370" y="1010" width="300" height="300" as="geometry" />
        </mxCell>
        <mxCell id="TMDQbr_qUR_ZuYRfACLo-42" value="Empowerment" style="shape=umlFrame;whiteSpace=wrap;html=1;" vertex="1" parent="TMDQbr_qUR_ZuYRfACLo-49">
          <mxGeometry width="300" height="300" as="geometry" />
        </mxCell>
        <mxCell id="TMDQbr_qUR_ZuYRfACLo-48" value="Dots" style="html=1;" vertex="1" parent="TMDQbr_qUR_ZuYRfACLo-49">
          <mxGeometry x="100" y="237.93103448275863" width="110" height="51.724137931034484" as="geometry" />
        </mxCell>
        <mxCell id="TMDQbr_qUR_ZuYRfACLo-43" value="Animation" style="html=1;" vertex="1" parent="TMDQbr_qUR_ZuYRfACLo-49">
          <mxGeometry x="100" y="31.03448275862069" width="110" height="51.724137931034484" as="geometry" />
        </mxCell>
        <mxCell id="TMDQbr_qUR_ZuYRfACLo-44" value="AI" style="html=1;" vertex="1" parent="TMDQbr_qUR_ZuYRfACLo-49">
          <mxGeometry x="100" y="103.44827586206897" width="110" height="51.724137931034484" as="geometry" />
        </mxCell>
        <mxCell id="TMDQbr_qUR_ZuYRfACLo-45" value="Nav" style="html=1;" vertex="1" parent="TMDQbr_qUR_ZuYRfACLo-49">
          <mxGeometry x="100" y="174.82758620689657" width="110" height="51.724137931034484" as="geometry" />
        </mxCell>
        <mxCell id="TMDQbr_qUR_ZuYRfACLo-51" value="" style="group" vertex="1" connectable="0" parent="1">
          <mxGeometry y="1010" width="300" height="250" as="geometry" />
        </mxCell>
        <mxCell id="TMDQbr_qUR_ZuYRfACLo-11" value="Data" style="shape=umlFrame;whiteSpace=wrap;html=1;" vertex="1" parent="TMDQbr_qUR_ZuYRfACLo-51">
          <mxGeometry width="300" height="250" as="geometry" />
        </mxCell>
        <mxCell id="TMDQbr_qUR_ZuYRfACLo-12" value="Data Table" style="html=1;" vertex="1" parent="TMDQbr_qUR_ZuYRfACLo-51">
          <mxGeometry x="100" y="20" width="110" height="50" as="geometry" />
        </mxCell>
        <mxCell id="TMDQbr_qUR_ZuYRfACLo-13" value="Data Node" style="html=1;" vertex="1" parent="TMDQbr_qUR_ZuYRfACLo-51">
          <mxGeometry x="100" y="75" width="110" height="50" as="geometry" />
        </mxCell>
        <mxCell id="TMDQbr_qUR_ZuYRfACLo-14" value="Setting" style="html=1;" vertex="1" parent="TMDQbr_qUR_ZuYRfACLo-51">
          <mxGeometry x="100" y="130" width="110" height="50" as="geometry" />
        </mxCell>
        <mxCell id="TMDQbr_qUR_ZuYRfACLo-50" value="GolbolSetting" style="html=1;" vertex="1" parent="TMDQbr_qUR_ZuYRfACLo-51">
          <mxGeometry x="100" y="190" width="110" height="50" as="geometry" />
        </mxCell>
        <mxCell id="TMDQbr_qUR_ZuYRfACLo-54" value="Setting" style="shape=umlFrame;whiteSpace=wrap;html=1;" vertex="1" parent="1">
          <mxGeometry y="1310" width="300" height="280" as="geometry" />
        </mxCell>
        <mxCell id="TMDQbr_qUR_ZuYRfACLo-52" value="Sound" style="html=1;" vertex="1" parent="1">
          <mxGeometry x="100" y="1330" width="110" height="50" as="geometry" />
        </mxCell>
        <mxCell id="TMDQbr_qUR_ZuYRfACLo-55" value="Graphic" style="html=1;" vertex="1" parent="1">
          <mxGeometry x="100" y="1395" width="110" height="50" as="geometry" />
        </mxCell>
        <mxCell id="TMDQbr_qUR_ZuYRfACLo-56" value="Input" style="html=1;" vertex="1" parent="1">
          <mxGeometry x="100" y="1460" width="110" height="50" as="geometry" />
        </mxCell>
        <mxCell id="TMDQbr_qUR_ZuYRfACLo-61" value="Physics" style="html=1;" vertex="1" parent="1">
          <mxGeometry x="100" y="1520" width="110" height="50" as="geometry" />
        </mxCell>
        <mxCell id="TMDQbr_qUR_ZuYRfACLo-67" value="" style="group" vertex="1" connectable="0" parent="1">
          <mxGeometry x="350" width="300" height="200" as="geometry" />
        </mxCell>
        <mxCell id="TMDQbr_qUR_ZuYRfACLo-63" value="Tools" style="shape=umlFrame;whiteSpace=wrap;html=1;" vertex="1" parent="TMDQbr_qUR_ZuYRfACLo-67">
          <mxGeometry width="300" height="200" as="geometry" />
        </mxCell>
        <mxCell id="TMDQbr_qUR_ZuYRfACLo-64" value="Mesh" style="html=1;" vertex="1" parent="TMDQbr_qUR_ZuYRfACLo-67">
          <mxGeometry x="95" y="20" width="110" height="50" as="geometry" />
        </mxCell>
        <mxCell id="TMDQbr_qUR_ZuYRfACLo-65" value="Draw" style="html=1;" vertex="1" parent="TMDQbr_qUR_ZuYRfACLo-67">
          <mxGeometry x="95" y="80" width="110" height="50" as="geometry" />
        </mxCell>
        <mxCell id="TMDQbr_qUR_ZuYRfACLo-66" value="Animation" style="html=1;" vertex="1" parent="TMDQbr_qUR_ZuYRfACLo-67">
          <mxGeometry x="95" y="140" width="110" height="50" as="geometry" />
        </mxCell>
      </root>
    </mxGraphModel>
  </diagram>
</mxfile>
